<svg xmlns="http://www.w3.org/2000/svg" xmlns:osb="http://www.openswatchbook.org/uri/2009/osb" xmlns:svg="http://www.w3.org/2000/svg" id="svg7384" width="16" height="16" version="1.1"><metadata id="metadata90"/><title id="title9167">Gnome Symbolic Icon Theme</title><defs id="defs7386"><linearGradient id="linearGradient7212" osb:paint="solid"><stop id="stop7214" offset="0" style="stop-color:#000;stop-opacity:1"/></linearGradient><linearGradient id="linearGradient1723"><stop id="stop1719" offset="0" style="stop-color:#d5d3cf;stop-opacity:1"/><stop style="stop-color:#f6f5f4;stop-opacity:1" id="stop1731" offset=".045"/><stop style="stop-color:#d5d3cf;stop-opacity:1" id="stop1729" offset=".091"/><stop style="stop-color:#d5d3cf;stop-opacity:1" id="stop1727" offset=".909"/><stop id="stop1733" offset=".955" style="stop-color:#eeeeec;stop-opacity:1"/><stop id="stop1721" offset="1" style="stop-color:#d5d3cf;stop-opacity:1"/></linearGradient><linearGradient id="linearGradient1351-3"><stop id="stop1347" offset="0" style="stop-color:#d5d3cf;stop-opacity:1"/><stop id="stop1349-6" offset="1" style="stop-color:#fff;stop-opacity:1"/></linearGradient><clipPath id="clipPath1609-7" clipPathUnits="userSpaceOnUse"><path style="fill:#e74747;stroke:none;stroke-width:.25px;stroke-linecap:butt;stroke-linejoin:miter;stroke-opacity:1" id="path1611-5" d="m 252,116 28,-28 v -8 h -36 v 36 z"/></clipPath></defs><g id="layer9" transform="translate(-483.00018,145)" style="display:inline"><g id="g5191" transform="translate(0,0.59086605)"><path id="rect8512" d="m 484.50019,-143.33008 v 0.004 0.76953 0.51367 1.30469 3.03516 6.00195 c 0,0.56915 0.446,1.02734 1,1.02734 h 11 c 0.554,0 1,-0.45819 1,-1.02734 v -6.00195 -3.03516 -1.30469 -0.51367 -0.76953 -0.004 h -1.32031 v 11.37891 H 485.8205 v -11.37891 z" clip-path="none" style="display:inline;opacity:1;vector-effect:none;fill:#bebebe;fill-opacity:1;stroke:none;stroke-width:13.71876621;stroke-linecap:butt;stroke-linejoin:miter;stroke-miterlimit:4;stroke-dasharray:none;stroke-dashoffset:0;stroke-opacity:1;marker:none;marker-start:none;marker-mid:none;marker-end:none;paint-order:normal;enable-background:new"/><g id="g5182" transform="translate(0.12500849)"><path id="path3601-2-3-3-9" d="m 486.78143,-144.49912 a 0.50005,0.50005 0 0 0 -0.40625,0.5 v 3 a 0.50005,0.50005 0 1 0 1,0 v -3 a 0.50005,0.50005 0 0 0 -0.59375,-0.5 z" style="color:#000;font-style:normal;font-variant:normal;font-weight:400;font-stretch:normal;font-size:medium;line-height:normal;font-family:Sans;-inkscape-font-specification:Sans;text-indent:0;text-align:start;text-decoration:none;text-decoration-line:none;letter-spacing:normal;word-spacing:normal;text-transform:none;writing-mode:lr-tb;direction:ltr;baseline-shift:baseline;text-anchor:start;display:inline;overflow:visible;visibility:visible;fill:#bebebe;fill-opacity:1;stroke:none;stroke-width:1;marker:none;enable-background:accumulate"/><path id="path3601-2-3-3-9-3" d="m 488.78143,-144.49912 a 0.50005,0.50005 0 0 0 -0.40625,0.5 v 3 a 0.50005,0.50005 0 1 0 1,0 v -3 a 0.50005,0.50005 0 0 0 -0.59375,-0.5 z" style="color:#000;font-style:normal;font-variant:normal;font-weight:400;font-stretch:normal;font-size:medium;line-height:normal;font-family:Sans;-inkscape-font-specification:Sans;text-indent:0;text-align:start;text-decoration:none;text-decoration-line:none;letter-spacing:normal;word-spacing:normal;text-transform:none;writing-mode:lr-tb;direction:ltr;baseline-shift:baseline;text-anchor:start;display:inline;overflow:visible;visibility:visible;fill:#bebebe;fill-opacity:1;stroke:none;stroke-width:1;marker:none;enable-background:accumulate"/><path id="path3601-2-3-3-9-3-3" d="m 490.78143,-144.49912 a 0.50005,0.50005 0 0 0 -0.40625,0.5 v 3 a 0.50005,0.50005 0 1 0 1,0 v -3 a 0.50005,0.50005 0 0 0 -0.59375,-0.5 z" style="color:#000;font-style:normal;font-variant:normal;font-weight:400;font-stretch:normal;font-size:medium;line-height:normal;font-family:Sans;-inkscape-font-specification:Sans;text-indent:0;text-align:start;text-decoration:none;text-decoration-line:none;letter-spacing:normal;word-spacing:normal;text-transform:none;writing-mode:lr-tb;direction:ltr;baseline-shift:baseline;text-anchor:start;display:inline;overflow:visible;visibility:visible;fill:#bebebe;fill-opacity:1;stroke:none;stroke-width:1;marker:none;enable-background:accumulate"/><path id="path3601-2-3-3-9-3-3-7" d="m 492.78143,-144.49912 a 0.50005,0.50005 0 0 0 -0.40625,0.5 v 3 a 0.50005,0.50005 0 1 0 1,0 v -3 a 0.50005,0.50005 0 0 0 -0.59375,-0.5 z" style="color:#000;font-style:normal;font-variant:normal;font-weight:400;font-stretch:normal;font-size:medium;line-height:normal;font-family:Sans;-inkscape-font-specification:Sans;text-indent:0;text-align:start;text-decoration:none;text-decoration-line:none;letter-spacing:normal;word-spacing:normal;text-transform:none;writing-mode:lr-tb;direction:ltr;baseline-shift:baseline;text-anchor:start;display:inline;overflow:visible;visibility:visible;fill:#bebebe;fill-opacity:1;stroke:none;stroke-width:1;marker:none;enable-background:accumulate"/><path style="color:#000;font-style:normal;font-variant:normal;font-weight:400;font-stretch:normal;font-size:medium;line-height:normal;font-family:Sans;-inkscape-font-specification:Sans;text-indent:0;text-align:start;text-decoration:none;text-decoration-line:none;letter-spacing:normal;word-spacing:normal;text-transform:none;writing-mode:lr-tb;direction:ltr;baseline-shift:baseline;text-anchor:start;display:inline;overflow:visible;visibility:visible;fill:#bebebe;fill-opacity:1;stroke:none;stroke-width:1;marker:none;enable-background:accumulate" id="path5175" d="m 494.78143,-144.49912 a 0.50005,0.50005 0 0 0 -0.40625,0.5 v 3 a 0.50005,0.50005 0 1 0 1,0 v -3 a 0.50005,0.50005 0 0 0 -0.59375,-0.5 z"/></g></g><text style="font-style:normal;font-variant:normal;font-weight:700;font-stretch:normal;font-size:10.30418396px;line-height:0%;font-family:FreeSans;-inkscape-font-specification:'FreeSans Bold';text-align:center;text-anchor:middle;display:inline;fill:#bebebe;fill-opacity:1;stroke:none;stroke-width:1.10452974;enable-background:new" id="text5483" x="476.224" y="-134.349" transform="scale(1.025818,0.9748318)" xml:space="preserve"><tspan id="tspan5481" x="476.224" y="-134.349" style="font-size:10.30418396px;fill:#bebebe;fill-opacity:1;stroke-width:1.10452974">A</tspan></text><text style="font-style:normal;font-weight:700;font-size:7.68029356px;line-height:0%;font-family:FreeSans;-inkscape-font-specification:'Sans Bold';text-align:center;text-anchor:middle;display:inline;fill:#bebebe;fill-opacity:1;stroke:none;stroke-width:1.10452986;enable-background:new" id="text5489" x="507.502" y="-131.01" transform="scale(0.97200623,1.0288)" xml:space="preserve"><tspan id="tspan5487" x="507.502" y="-131.01" style="font-size:6.0633893px;fill:#bebebe;fill-opacity:1;stroke-width:1.10452986">ğ›€</tspan></text></g></svg>