<svg xmlns="http://www.w3.org/2000/svg" xmlns:svg="http://www.w3.org/2000/svg" xmlns:xlink="http://www.w3.org/1999/xlink" id="svg3085" width="128" height="128" version="1.1"><defs id="defs3087"><linearGradient id="linearGradient10239"><stop style="stop-color:#000;stop-opacity:1" id="stop10241" offset="0"/><stop style="stop-color:#000;stop-opacity:0" id="stop10243" offset="1"/></linearGradient><radialGradient id="radialGradient10421" cx="307.282" cy="203.613" r="4.906" fx="306.286" fy="203.613" gradientTransform="matrix(1,0,0,0.1531531,0,172.42861)" gradientUnits="userSpaceOnUse" xlink:href="#linearGradient10239"/><linearGradient id="linearGradient8550" x1="344" x2="340" y1="76" y2="72" gradientTransform="matrix(0.25,0,0,0.25,180,83)" gradientUnits="userSpaceOnUse" xlink:href="#linearGradient1351-3"/><linearGradient id="linearGradient1351-3"><stop id="stop1347" offset="0" style="stop-color:#d5d3cf;stop-opacity:1"/><stop id="stop1349-6" offset="1" style="stop-color:#fff;stop-opacity:1"/></linearGradient><clipPath id="clipPath1609-7" clipPathUnits="userSpaceOnUse"><path style="fill:#e74747;stroke:none;stroke-width:.25px;stroke-linecap:butt;stroke-linejoin:miter;stroke-opacity:1" id="path1611-5" d="m 252,116 28,-28 v -8 h -36 v 36 z"/></clipPath><linearGradient id="linearGradient8548" x1="8" x2="112" y1="-244.844" y2="-244" gradientTransform="translate(-16.436501,243.42857)" gradientUnits="userSpaceOnUse" xlink:href="#linearGradient1723"/><linearGradient id="linearGradient1723"><stop id="stop1719" offset="0" style="stop-color:#d5d3cf;stop-opacity:1"/><stop style="stop-color:#f6f5f4;stop-opacity:1" id="stop1731" offset=".045"/><stop style="stop-color:#d5d3cf;stop-opacity:1" id="stop1729" offset=".091"/><stop style="stop-color:#d5d3cf;stop-opacity:1" id="stop1727" offset=".909"/><stop id="stop1733" offset=".955" style="stop-color:#eeeeec;stop-opacity:1"/><stop id="stop1721" offset="1" style="stop-color:#d5d3cf;stop-opacity:1"/></linearGradient></defs><metadata id="metadata3090"/><g id="layer1" transform="translate(0,80)"><g id="g3557" transform="translate(107.42857,-4.5714302)"><rect id="rect8496" width="104" height="27.596" x="-8.437" y="-40.571" clip-path="none" rx="8" ry="8" transform="scale(-1)" style="display:inline;opacity:1;vector-effect:none;fill:#26a269;fill-opacity:1;stroke:none;stroke-width:13.71876526;stroke-linecap:butt;stroke-linejoin:miter;stroke-miterlimit:4;stroke-dasharray:none;stroke-dashoffset:0;stroke-opacity:1;marker:none;marker-start:none;marker-mid:none;marker-end:none;paint-order:normal;enable-background:new"/><rect style="display:inline;opacity:1;vector-effect:none;fill:url(#linearGradient8548);fill-opacity:1;stroke:none;stroke-width:13.71876526;stroke-linecap:butt;stroke-linejoin:miter;stroke-miterlimit:4;stroke-dasharray:none;stroke-dashoffset:0;stroke-opacity:1;marker:none;marker-start:none;marker-mid:none;marker-end:none;paint-order:normal;enable-background:new" id="rect8510" width="104" height="36.491" x="-8.437" y="-38.747" clip-path="none" rx="8" ry="8" transform="scale(-1)"/><rect style="display:inline;opacity:1;vector-effect:none;fill:#f6f5f4;fill-opacity:1;stroke:none;stroke-width:13.71876526;stroke-linecap:butt;stroke-linejoin:miter;stroke-miterlimit:4;stroke-dasharray:none;stroke-dashoffset:0;stroke-opacity:1;marker:none;marker-start:none;marker-mid:none;marker-end:none;paint-order:normal;enable-background:new" id="rect8512" width="104" height="43.789" x="-8.437" y="19.639" clip-path="none" transform="scale(-1)"/><rect id="rect8514" width="104" height="98.526" x="-8.437" y="-35.098" clip-path="none" rx="8" ry="8" transform="scale(-1)" style="display:inline;opacity:1;vector-effect:none;fill:#f6f5f4;fill-opacity:1;stroke:none;stroke-width:13.71876526;stroke-linecap:butt;stroke-linejoin:miter;stroke-miterlimit:4;stroke-dasharray:none;stroke-dashoffset:0;stroke-opacity:1;marker:none;marker-start:none;marker-mid:none;marker-end:none;paint-order:normal;enable-background:new"/><g id="text10148" aria-label="A" transform="matrix(1.025818,0,0,0.97483179,-107.56348,-247.42857)" style="font-style:normal;font-variant:normal;font-weight:700;font-stretch:normal;font-size:40px;line-height:0%;font-family:FreeSans;-inkscape-font-specification:'FreeSans Bold';text-align:center;text-anchor:middle;display:inline;fill:#241f31;fill-opacity:.14117647;stroke:none;stroke-width:1.10452974;enable-background:new"><path id="path10150" d="m 44.674422,273.14249 h -10.92 l -1.96,5.88 h -6.12 l -0.0033,-2.05163 10.363289,-27.10837 h 6.64 l 10.114233,27.10837 -0.03423,2.05163 h -6.16 z m -1.64,-5 -3.8,-11.4 -3.8,11.4 z" style="font-size:40px;fill:#241f31;fill-opacity:.14117647;stroke-width:1.10452974"/></g><text style="font-style:normal;font-weight:700;font-size:50.66666794px;line-height:0%;font-family:FreeSans;-inkscape-font-specification:'Sans Bold';text-align:center;text-anchor:middle;display:inline;fill:#241f31;fill-opacity:.14117647;stroke:none;stroke-width:1.10452974;enable-background:new" id="text10144" x="-23.928" y="-10.441" transform="scale(0.97200623,1.0288)" xml:space="preserve"><tspan id="tspan10142" x="-23.928" y="-10.441" style="font-size:40px;fill:#241f31;fill-opacity:.14117647;stroke-width:1.10452974">𝛀</tspan></text><text id="text9426" x="-65.637" y="23.154" transform="scale(1.025818,0.97483179)" xml:space="preserve" style="font-style:normal;font-variant:normal;font-weight:700;font-stretch:normal;font-size:40px;line-height:0%;font-family:FreeSans;-inkscape-font-specification:'FreeSans Bold';text-align:center;text-anchor:middle;display:inline;fill:#5e5c64;fill-opacity:1;stroke:none;stroke-width:1.10452974;enable-background:new"><tspan style="font-size:40px;fill:#5e5c64;fill-opacity:1;stroke-width:1.10452974" id="tspan9428" x="-65.637" y="23.154">A</tspan></text><text id="text9430" x="-23.928" y="-12.385" transform="scale(0.97200623,1.0288)" xml:space="preserve" style="font-style:normal;font-weight:700;font-size:50.66666794px;line-height:0%;font-family:FreeSans;-inkscape-font-specification:'Sans Bold';text-align:center;text-anchor:middle;display:inline;fill:#5e5c64;fill-opacity:1;stroke:none;stroke-width:1.10452974;enable-background:new"><tspan style="font-size:40px;fill:#5e5c64;fill-opacity:1;stroke-width:1.10452974" id="tspan9432" x="-23.928" y="-12.385">𝛀</tspan></text><rect style="display:inline;opacity:1;fill:url(#linearGradient8550);fill-opacity:1;stroke:none;stroke-width:.5;stroke-linecap:butt;stroke-linejoin:miter;stroke-miterlimit:4;stroke-dasharray:none;stroke-dashoffset:0;stroke-opacity:1;marker:none;marker-start:none;marker-mid:none;marker-end:none;paint-order:normal;enable-background:new" id="rect8518" width="36" height="36" x="252" y="88" clip-path="url(#clipPath1609-7)" rx="11.2" ry="11.2" transform="matrix(0,0.71428571,0.71428571,0,-74.150807,-164.63714)"/><path id="path8536" d="m -87.563479,-57.428568 c -1.10457,0 -2,0.89543 -2,2 0,1.10457 0.89543,2.000001 2,2.000001 1.10457,0 2,-0.895431 2,-2.000001 0,-1.10457 -0.89543,-2 -2,-2 z m 8,0 c -1.10457,0 -2,0.89543 -2,2 0,1.10457 0.89543,2.000001 2,2.000001 1.10457,0 2,-0.895431 2,-2.000001 0,-1.10457 -0.89543,-2 -2,-2 z m 8,0 c -1.10457,0 -2,0.89543 -2,2 0,1.10457 0.89543,2.000001 2,2.000001 1.10457,0 2,-0.895431 2,-2.000001 0,-1.10457 -0.89543,-2 -2,-2 z m 8,0 c -1.10457,0 -2,0.89543 -2,2 0,1.10457 0.89543,2.000001 2,2.000001 1.10457,0 2,-0.895431 2,-2.000001 0,-1.10457 -0.89543,-2 -2,-2 z m 8,0 c -1.10457,0 -2,0.89543 -2,2 0,1.10457 0.89543,2.000001 2,2.000001 1.10457,0 2,-0.895431 2,-2.000001 0,-1.10457 -0.89543,-2 -2,-2 z m 8,0 c -1.10457,0 -2,0.89543 -2,2 0,1.10457 0.89543,2.000001 2,2.000001 1.10457,0 2,-0.895431 2,-2.000001 0,-1.10457 -0.89543,-2 -2,-2 z m 8,0 c -1.10457,0 -2,0.89543 -2,2 0,1.10457 0.89543,2.000001 2,2.000001 1.10457,0 2,-0.895431 2,-2.000001 0,-1.10457 -0.89543,-2 -2,-2 z m 8,0 c -1.10457,0 -2,0.89543 -2,2 0,1.10457 0.89543,2.000001 2,2.000001 1.10457,0 2,-0.895431 2,-2.000001 0,-1.10457 -0.89543,-2 -2,-2 z m 8,0 c -1.10457,0 -2,0.89543 -2,2 0,1.10457 0.89543,2.000001 2,2.000001 1.10457,0 2,-0.895431 2,-2.000001 0,-1.10457 -0.89543,-2 -2,-2 z" style="display:inline;opacity:1;fill:#d5d3cf;fill-opacity:1;stroke:none;stroke-width:4;stroke-linecap:square;stroke-linejoin:round;stroke-miterlimit:4;stroke-dasharray:none;stroke-dashoffset:0;stroke-opacity:1;enable-background:new"/><path id="path8538" d="m -95.563479,-57.428568 a 2,2 0 0 1 2,2 2,2 0 0 1 -2,2.000001 v -2.000001 z" style="display:inline;opacity:1;vector-effect:none;fill:#d5d3cf;fill-opacity:1;stroke:none;stroke-width:16;stroke-linecap:butt;stroke-linejoin:round;stroke-miterlimit:4;stroke-dasharray:none;stroke-dashoffset:0;stroke-opacity:1;enable-background:new"/><path style="display:inline;opacity:1;vector-effect:none;fill:#d5d3cf;fill-opacity:1;stroke:none;stroke-width:16;stroke-linecap:butt;stroke-linejoin:round;stroke-miterlimit:4;stroke-dasharray:none;stroke-dashoffset:0;stroke-opacity:1;enable-background:new" id="path8540" d="m 8.4365214,-57.428568 a 2,2 0 0 0 -2,2 2,2 0 0 0 2,2.000001 v -2.000001 z"/><path style="display:inline;opacity:1;fill:#d5d3cf;fill-opacity:1;stroke:none;stroke-width:4;stroke-linecap:square;stroke-linejoin:round;stroke-miterlimit:4;stroke-dasharray:none;stroke-dashoffset:0;stroke-opacity:1;enable-background:new" id="path8626" d="m -63.563479,-57.428568 c -1.10457,0 -2,0.89543 -2,2 0,1.10457 0.89543,2.000001 2,2.000001 1.10457,0 2,-0.895431 2,-2.000001 0,-1.10457 -0.89543,-2 -2,-2 z m 8,0 c -1.10457,0 -2,0.89543 -2,2 0,1.10457 0.89543,2.000001 2,2.000001 1.10457,0 2,-0.895431 2,-2.000001 0,-1.10457 -0.89543,-2 -2,-2 z m 8,0 c -1.10457,0 -2,0.89543 -2,2 0,1.10457 0.89543,2.000001 2,2.000001 1.10457,0 2,-0.895431 2,-2.000001 0,-1.10457 -0.89543,-2 -2,-2 z m 8,0 c -1.10457,0 -2,0.89543 -2,2 0,1.10457 0.89543,2.000001 2,2.000001 1.10457,0 2,-0.895431 2,-2.000001 0,-1.10457 -0.89543,-2 -2,-2 z m 8,0 c -1.10457,0 -2,0.89543 -2,2 0,1.10457 0.89543,2.000001 2,2.000001 1.10457,0 2,-0.895431 2,-2.000001 0,-1.10457 -0.89543,-2 -2,-2 z m 8,0 c -1.10457,0 -2,0.89543 -2,2 0,1.10457 0.89543,2.000001 2,2.000001 1.10457,0 2,-0.895431 2,-2.000001 0,-1.10457 -0.89543,-2 -2,-2 z m 8,0 c -1.10457,0 -2,0.89543 -2,2 0,1.10457 0.89543,2.000001 2,2.000001 1.10457,0 2,-0.895431 2,-2.000001 0,-1.10457 -0.89543,-2 -2,-2 z m 8.0000004,0 c -1.10457,0 -2,0.89543 -2,2 0,1.10457 0.89543,2.000001 2,2.000001 1.104572,0 2.000002,-0.895431 2.000002,-2.000001 0,-1.10457 -0.89543,-2 -2.000002,-2 z m 8.00000199,0 c -1.10457,0 -1.99999999,0.89543 -1.99999999,2 0,1.10457 0.89542999,2.000001 1.99999999,2.000001 1.10457001,0 2.00000001,-0.895431 2.00000001,-2.000001 0,-1.10457 -0.89543,-2 -2.00000001,-2 z"/><path style="display:inline;opacity:1;fill:#424040;fill-opacity:.14117647;stroke:none;stroke-width:1;stroke-linecap:round;stroke-linejoin:round;stroke-miterlimit:4;stroke-dasharray:none;stroke-opacity:1;enable-background:new" id="path10126" d="m -54.990577,-28.231957 1.5814,4.83266 11.022049,-12.14429 v -2.93699 l -16.019933,-5.08485 0.05112,2.80593 0.883963,4.60191 c -14.024732,7.0668 -19.629899,18.48872 -19.629899,19.01046 v 2.93699 l 8.903131,1.46896 c 2.013853,-8.5135 6.961348,-12.81866 13.208171,-15.49078 z"/><path id="path10058" d="m -54.990577,-31.168937 1.5814,4.83265 11.022049,-12.14429 -16.019933,-5.08485 0.935075,4.47085 c -15.804688,7.9637 -17.454299,14.93718 -19.629893,21.94745 l 8.53494,1.50988 c 2.013853,-8.51351 7.329539,-12.85958 13.576362,-15.53169 z" style="display:inline;opacity:1;fill:#33d17a;fill-opacity:1;stroke:none;stroke-width:1;stroke-linecap:round;stroke-linejoin:round;stroke-miterlimit:4;stroke-dasharray:none;stroke-opacity:1;enable-background:new"/><path id="path10124" d="m -34.918688,11.852913 -1.581401,-4.8326602 -11.910461,9.3579802 0.0076,2.78631 16.072632,5.49891 -0.08702,-3.2594 -0.512868,-1.5072 c 15.804688,-7.9637 18.683942,-18.5633402 19.196122,-21.0855202 l 0.01508,-3.77218 -7.623353,1.28207 c -2.013853,8.5135 -7.329539,12.85957 -13.576361,15.5316902 z" style="display:inline;opacity:1;fill:#000;fill-opacity:.14191422;stroke:none;stroke-width:1;stroke-linecap:round;stroke-linejoin:round;stroke-miterlimit:4;stroke-dasharray:none;stroke-opacity:1;enable-background:new"/><path style="display:inline;opacity:1;fill:#33d17a;fill-opacity:1;stroke:none;stroke-width:1;stroke-linecap:round;stroke-linejoin:round;stroke-miterlimit:4;stroke-dasharray:none;stroke-opacity:1;enable-background:new" id="path10060" d="m -35.818304,9.0794828 -1.5814,-4.83265 -11.022049,12.1442802 16.019933,5.08485 -0.935075,-4.47084 C -17.532207,9.0414228 -15.882596,2.0679328 -13.707002,-4.9423272 l -8.53494,-1.50988 c -2.013853,8.51351 -7.329539,12.85957 -13.576362,15.53169 z"/></g></g></svg>